<svg id="visual" viewBox="0 0 960 540" width="960" height="540" xmlns="http://www.w3.org/2000/svg" xmlns:xlink="http://www.w3.org/1999/xlink" version="1.1"><path d="M0 71L17.8 72.8C35.7 74.7 71.3 78.3 106.8 81C142.3 83.7 177.7 85.3 213.2 84.5C248.7 83.7 284.3 80.3 320 77.7C355.7 75 391.3 73 426.8 76.5C462.3 80 497.7 89 533.2 87.2C568.7 85.3 604.3 72.7 640 70.8C675.7 69 711.3 78 746.8 83.5C782.3 89 817.7 91 853.2 90.2C888.7 89.3 924.3 85.7 942.2 83.8L960 82L960 0L942.2 0C924.3 0 888.7 0 853.2 0C817.7 0 782.3 0 746.8 0C711.3 0 675.7 0 640 0C604.3 0 568.7 0 533.2 0C497.7 0 462.3 0 426.8 0C391.3 0 355.7 0 320 0C284.3 0 248.7 0 213.2 0C177.7 0 142.3 0 106.8 0C71.3 0 35.7 0 17.8 0L0 0Z" fill="#454c59"></path><path d="M0 190L17.8 198.2C35.7 206.3 71.3 222.7 106.8 233.5C142.3 244.3 177.7 249.7 213.2 244.2C248.7 238.7 284.3 222.3 320 209.7C355.7 197 391.3 188 426.8 193.5C462.3 199 497.7 219 533.2 226.2C568.7 233.3 604.3 227.7 640 227.7C675.7 227.7 711.3 233.3 746.8 235.2C782.3 237 817.7 235 853.2 234C888.7 233 924.3 233 942.2 233L960 233L960 80L942.2 81.8C924.3 83.7 888.7 87.3 853.2 88.2C817.7 89 782.3 87 746.8 81.5C711.3 76 675.7 67 640 68.8C604.3 70.7 568.7 83.3 533.2 85.2C497.7 87 462.3 78 426.8 74.5C391.3 71 355.7 73 320 75.7C284.3 78.3 248.7 81.7 213.2 82.5C177.7 83.3 142.3 81.7 106.8 79C71.3 76.3 35.7 72.7 17.8 70.8L0 69Z" fill="#343a46"></path><path d="M0 233L17.8 243C35.7 253 71.3 273 106.8 283.8C142.3 294.7 177.7 296.3 213.2 291.8C248.7 287.3 284.3 276.7 320 269.5C355.7 262.3 391.3 258.7 426.8 264.8C462.3 271 497.7 287 533.2 291.5C568.7 296 604.3 289 640 285.5C675.7 282 711.3 282 746.8 286.5C782.3 291 817.7 300 853.2 300C888.7 300 924.3 291 942.2 286.5L960 282L960 231L942.2 231C924.3 231 888.7 231 853.2 232C817.7 233 782.3 235 746.8 233.2C711.3 231.3 675.7 225.7 640 225.7C604.3 225.7 568.7 231.3 533.2 224.2C497.7 217 462.3 197 426.8 191.5C391.3 186 355.7 195 320 207.7C284.3 220.3 248.7 236.7 213.2 242.2C177.7 247.7 142.3 242.3 106.8 231.5C71.3 220.7 35.7 204.3 17.8 196.2L0 188Z" fill="#242933"></path><path d="M0 460L17.8 457.3C35.7 454.7 71.3 449.3 106.8 448.5C142.3 447.7 177.7 451.3 213.2 455.8C248.7 460.3 284.3 465.7 320 462.8C355.7 460 391.3 449 426.8 443.5C462.3 438 497.7 438 533.2 440.8C568.7 443.7 604.3 449.3 640 445.8C675.7 442.3 711.3 429.7 746.8 433.2C782.3 436.7 817.7 456.3 853.2 461.7C888.7 467 924.3 458 942.2 453.5L960 449L960 280L942.2 284.5C924.3 289 888.7 298 853.2 298C817.7 298 782.3 289 746.8 284.5C711.3 280 675.7 280 640 283.5C604.3 287 568.7 294 533.2 289.5C497.7 285 462.3 269 426.8 262.8C391.3 256.7 355.7 260.3 320 267.5C284.3 274.7 248.7 285.3 213.2 289.8C177.7 294.3 142.3 292.7 106.8 281.8C71.3 271 35.7 251 17.8 241L0 231Z" fill="#20242c"></path><path d="M0 541L17.8 541C35.7 541 71.3 541 106.8 541C142.3 541 177.7 541 213.2 541C248.7 541 284.3 541 320 541C355.7 541 391.3 541 426.8 541C462.3 541 497.7 541 533.2 541C568.7 541 604.3 541 640 541C675.7 541 711.3 541 746.8 541C782.3 541 817.7 541 853.2 541C888.7 541 924.3 541 942.2 541L960 541L960 447L942.2 451.5C924.3 456 888.7 465 853.2 459.7C817.7 454.3 782.3 434.7 746.8 431.2C711.3 427.7 675.7 440.3 640 443.8C604.3 447.3 568.7 441.7 533.2 438.8C497.7 436 462.3 436 426.8 441.5C391.3 447 355.7 458 320 460.8C284.3 463.7 248.7 458.3 213.2 453.8C177.7 449.3 142.3 445.7 106.8 446.5C71.3 447.3 35.7 452.7 17.8 455.3L0 458Z" fill="#1c1f26"></path></svg>